<?xml version="1.0" encoding="UTF-8"?><svg id="Calque_2" xmlns="http://www.w3.org/2000/svg" viewBox="0 0 995.43 300"><defs><style>.cls-1{fill:#0740af;}.cls-2{fill:#ffca2c;}</style></defs><g id="Calque_1-2"><g><path class="cls-2" d="M180.18,118.08L251.64,52.52c6.07-5.57,6.1-15.45,.02-19.56C230.33,18.57,206.99,7.61,182.29,.39c-7.04-2.06-14.63,4.28-15.04,12.5l-4.81,96.86c-.51,10.3,10.15,15.3,17.74,8.33Z"/><path class="cls-2" d="M180.18,178.61c-7.6-6.97-18.26-1.96-17.74,8.33l4.81,96.86c.41,8.22,8,14.56,15.04,12.5,24.7-7.22,48.04-18.18,69.37-32.58,6.08-4.1,6.05-13.99-.02-19.56l-71.46-65.56Z"/><path class="cls-2" d="M287.44,102.04l-89.82,36.57c-9.55,3.89-9.58,15.66-.05,19.6l89.62,37.06c7.61,3.15,16.58-1.01,17.73-8.25,4.04-25.42,4.11-51.2,.21-76.64-1.11-7.25-10.06-11.45-17.69-8.34Z"/><path class="cls-1" d="M132.28,241.54h-35.28c-7.07,0-13-5.35-13.74-12.37l2.01-103.69c-.83-8.15,5.55-15.21,13.74-15.21h23.36c8.39,0,15.21-6.82,15.21-15.21V15.22C137.58,6.83,130.75,0,122.36,0H15.24C6.45,0-.47,7.32,.02,16.05L12.83,241.64c.05,30.43,24.68,55.06,55.16,55.06h17.03c27.82,0,54.62-17.72,55.55-46.62,.2-4.66-3.63-8.54-8.29-8.54ZM71.03,82.01l.1,1.86h-14.87c-7.07,0-12.76-5.69-12.76-12.76v-28.07c0-7.02,5.69-12.76,12.76-12.76h28.07c7.07,0,12.76,5.74,12.76,12.76v10.84h-11.58c-8.73,0-15.7,7.31-15.16,16.05l.69,12.07Z"/><path class="cls-1" d="M476.47,21.45c-3.19-5.84-8-10.6-14.43-14.33-6.43-3.73-14.53-5.59-24.19-5.59h-50.99V114.79h29.39v-36.56h21.59c9.67,0,17.76-1.86,24.19-5.59,6.43-3.73,11.24-8.54,14.43-14.38,3.24-5.89,4.86-12.02,4.86-18.45s-1.62-12.56-4.86-18.35Zm-28.31,27.28c-2.26,2.7-5.79,4.07-10.45,4.07h-21.44V27.09h21.44c4.66,0,8.2,1.32,10.45,3.97,2.31,2.65,3.44,5.59,3.44,8.88s-1.13,6.08-3.44,8.78Z"/><path class="cls-1" d="M567.16,69.35c6.13-2.75,10.94-6.82,14.48-12.17,3.53-5.35,5.3-11.88,5.3-19.53s-1.82-14.48-5.35-19.83c-3.58-5.35-8.59-9.42-15.02-12.17-6.43-2.75-13.89-4.12-22.33-4.12h-49.91V114.79h29.39v-41.02h14.08l19.09,41.02h32.34l-22.08-45.44Zm-13.45-22.03c-2.55,2.01-5.89,3.04-9.96,3.04h-20.02V26.8h20.02c4.07,0,7.41,.98,9.96,2.99,2.55,1.96,3.83,4.91,3.83,8.78s-1.28,6.67-3.83,8.74Z"/><path class="cls-1" d="M711.18,36.81c-2.45-6.87-6.13-13.1-11.09-18.6-4.96-5.5-11.09-9.91-18.45-13.25C674.33,1.67,665.74,0,655.93,0s-18.35,1.67-25.71,4.96c-7.31,3.34-13.45,7.75-18.35,13.25-4.91,5.5-8.59,11.73-11.09,18.6-2.5,6.87-3.73,13.94-3.73,21.2s1.23,14.33,3.73,21.3c2.5,6.92,6.18,13.15,11.09,18.75,4.91,5.55,11.04,9.96,18.35,13.3,7.36,3.34,15.95,4.96,25.71,4.96s18.4-1.62,25.71-4.96c7.36-3.34,13.49-7.75,18.45-13.3,4.96-5.59,8.64-11.83,11.09-18.75,2.45-6.97,3.68-14.03,3.68-21.3s-1.23-14.33-3.68-21.2Zm-30.08,36.56c-2.06,4.96-5.2,8.98-9.37,12.12-4.22,3.09-9.47,4.66-15.8,4.66s-11.43-1.57-15.61-4.66c-4.17-3.14-7.31-7.16-9.42-12.12-2.06-4.91-3.09-10.06-3.09-15.36s1.03-10.4,3.09-15.31c2.11-4.91,5.25-8.88,9.42-12.02,4.17-3.09,9.42-4.66,15.61-4.66s11.58,1.57,15.8,4.66c4.17,3.14,7.31,7.12,9.37,12.02,2.11,4.91,3.14,10.01,3.14,15.31s-1.03,10.45-3.14,15.36Z"/><polygon class="cls-1" points="803.8 51.43 758.04 51.43 758.04 26.94 810.69 26.94 810.69 1.53 728.65 1.53 728.65 114.8 758.04 114.8 758.04 75.77 803.8 75.77 803.8 51.43"/><path class="cls-1" d="M425.06,214.36c4.13-3.11,9.26-4.67,15.38-4.67,5.21,0,9.39,.82,12.55,2.45,3.16,1.63,5.51,3.55,7.04,5.74,1.53,2.19,2.81,4.92,3.83,8.19h29.08c-.72-4.08-1.66-7.73-2.83-10.94-1.17-3.22-2.91-6.63-5.2-10.26-2.3-3.62-5.38-7.04-9.26-10.25-3.88-3.21-8.72-5.84-14.54-7.88-5.82-2.04-12.81-3.06-20.97-3.06-9.59,0-18.01,1.66-25.26,4.97-7.25,3.32-13.27,7.73-18.06,13.24-4.8,5.51-8.42,11.71-10.87,18.6-2.45,6.89-3.67,13.96-3.67,21.2s1.22,14.34,3.67,21.28c2.45,6.94,6.07,13.19,10.87,18.75,4.8,5.56,10.82,10,18.06,13.32,7.24,3.32,15.66,4.98,25.26,4.98,8.16,0,15.15-1.02,20.97-3.06,5.82-2.04,10.66-4.67,14.54-7.88,3.88-3.21,6.97-6.63,9.26-10.25,2.3-3.62,4.03-7.04,5.2-10.25,1.17-3.22,2.12-6.86,2.83-10.95h-29.08c-1.02,3.27-2.3,5.97-3.83,8.11-1.53,2.14-3.88,4.03-7.04,5.66-3.16,1.64-7.35,2.45-12.55,2.45-6.12,0-11.25-1.58-15.38-4.75-4.13-3.16-7.22-7.19-9.26-12.09-2.04-4.9-3.06-10-3.06-15.31s1.02-10.41,3.06-15.3c2.04-4.9,5.13-8.9,9.26-12.02Z"/><rect class="cls-1" x="506.71" y="185.2" width="29.39" height="113.26"/><polygon class="cls-1" points="550.64 210.61 584.93 210.61 584.93 298.47 614.31 298.47 614.31 210.61 648.6 210.61 648.6 185.2 550.64 185.2 550.64 210.61"/><path class="cls-1" d="M736.01,253.02c6.08-2.75,10.94-6.82,14.43-12.17,3.53-5.35,5.3-11.88,5.3-19.53s-1.77-14.48-5.35-19.83c-3.58-5.35-8.59-9.42-15.02-12.17-6.43-2.75-13.89-4.12-22.33-4.12h-49.91v113.26h29.39v-41.02h14.08l19.14,41.02h32.29l-22.03-45.44Zm-13.49-22.03c-2.55,2.01-5.84,3.04-9.96,3.04h-20.02v-23.55h20.02c4.12,0,7.41,.98,9.96,2.94,2.55,2.01,3.83,4.96,3.83,8.83s-1.28,6.67-3.83,8.74Z"/><path class="cls-1" d="M880.04,220.49c-2.45-6.87-6.18-13.1-11.09-18.6-4.96-5.5-11.14-9.91-18.45-13.25-7.36-3.29-15.95-4.96-25.71-4.96s-18.4,1.67-25.71,4.96c-7.36,3.34-13.49,7.75-18.4,13.25-4.86,5.5-8.59,11.73-11.09,18.6-2.5,6.87-3.73,13.94-3.73,21.2s1.23,14.33,3.73,21.25c2.5,6.97,6.23,13.2,11.09,18.79,4.91,5.55,11.04,9.96,18.4,13.3,7.31,3.29,15.9,4.96,25.71,4.96s18.35-1.67,25.71-4.96c7.31-3.34,13.49-7.75,18.45-13.3,4.91-5.59,8.64-11.83,11.09-18.79,2.45-6.92,3.68-13.99,3.68-21.25s-1.23-14.33-3.68-21.2Zm-30.08,36.56c-2.11,4.96-5.25,8.98-9.42,12.12-4.17,3.09-9.42,4.66-15.75,4.66s-11.43-1.57-15.61-4.66c-4.22-3.14-7.36-7.16-9.42-12.12-2.11-4.91-3.14-10.06-3.14-15.36s1.03-10.4,3.14-15.31c2.06-4.91,5.2-8.88,9.42-12.02,4.17-3.09,9.37-4.66,15.61-4.66s11.58,1.57,15.75,4.66c4.17,3.14,7.31,7.12,9.42,12.02,2.06,4.91,3.14,10.01,3.14,15.31s-1.08,10.45-3.14,15.36Z"/><polygon class="cls-1" points="966.35 185.2 966.35 248.11 924.57 185.2 897.47 185.2 897.47 298.47 926.56 298.47 926.56 238.77 968.04 298.47 995.43 298.47 995.43 185.2 966.35 185.2"/></g></g></svg>